<svg width="15" height="15" viewBox="0 0 15 15" fill="none" xmlns="http://www.w3.org/2000/svg">
<circle cx="7.5" cy="7.5" r="7.5" fill="#EF0D0D"/>
<path d="M9.12787 6.81467C9.73561 6.81467 10.3068 7.05078 10.736 7.48004L11.1569 7.90091C12.0164 7.51978 12.6875 6.7558 12.9103 5.82445C13.0333 5.31055 13.025 4.81297 12.9149 4.35493C12.8588 4.12118 12.5619 4.04319 12.392 4.21305L10.9119 5.69331H9.2878V4.08831L10.7679 2.60804C10.9379 2.43805 10.8598 2.14118 10.6261 2.08511C10.1681 1.975 9.67053 1.96673 9.15667 2.08973C7.96869 2.37396 7.04302 3.38351 6.85376 4.5905C6.8228 4.76936 6.81636 4.94338 6.81851 5.11526L8.59682 6.89545C8.77126 6.83615 8.94956 6.81467 9.12787 6.81467ZM10.2493 7.98556C9.75172 7.48799 9.01251 7.39324 8.41487 7.68693L6.10529 5.39455V4.06231L3.37488 2.00003L2 3.35569L4.06231 6.08635L5.39508 6.08651L7.68726 8.37674C7.39359 8.97444 7.48852 9.71371 7.98608 10.2113L10.4995 12.7271C10.8136 13.0386 11.3204 13.0386 11.6319 12.7271L12.7651 11.5938C13.0766 11.2822 13.0766 10.7756 12.765 10.4613L10.2493 7.98556ZM6.89584 8.59572L5.62408 7.32599L2.42535 10.525C1.85886 11.0915 1.85886 12.0091 2.42535 12.5757C2.70806 12.8582 3.07863 13 3.45006 13C3.82149 13 4.19207 12.8584 4.4752 12.575L7.03376 10.0163C6.84429 9.56896 6.78199 9.07697 6.89584 8.59572ZM3.37488 12.1406C3.09023 12.1406 2.8593 11.9097 2.8593 11.625C2.8593 11.3401 3.09023 11.1094 3.37488 11.1094C3.65952 11.1094 3.89045 11.3393 3.89045 11.625C3.89045 11.9107 3.65952 12.1406 3.37488 12.1406Z" fill="black"/>
</svg>
